<svg version="1.1" viewBox="0.0 0.0 711.6614173228346 721.5433070866142" fill="none" stroke="none" stroke-linecap="square" stroke-miterlimit="10" xmlns:xlink="http://www.w3.org/1999/xlink" xmlns="http://www.w3.org/2000/svg"><clipPath id="p.0"><path d="m0 0l711.66144 0l0 721.54333l-711.66144 0l0 -721.54333z" clip-rule="nonzero"/></clipPath><g clip-path="url(#p.0)"><path fill="#000000" fill-opacity="0.0" d="m0 0l711.66144 0l0 721.54333l-711.66144 0z" fill-rule="evenodd"/><path fill="#999999" d="m359.1819 172.19496l49.66928 40.755905l-230.4567 280.7874l-49.669296 -40.75592z" fill-rule="evenodd"/><path stroke="#000000" stroke-width="1.0" stroke-linejoin="round" stroke-linecap="butt" d="m359.1819 172.19496l49.66928 40.755905l-230.4567 280.7874l-49.669296 -40.75592z" fill-rule="evenodd"/><path fill="#999999" d="m172.45975 504.82422l-98.00001 44.346436l24.3937 -104.75589z" fill-rule="evenodd"/><path stroke="#000000" stroke-width="1.0" stroke-linejoin="round" stroke-linecap="butt" d="m172.45975 504.82422l-98.00001 44.346436l24.3937 -104.75589z" fill-rule="evenodd"/><path fill="#999999" d="m395.89774 101.62885l54.845062 45.01777c2.2373047 1.8364105 3.653473 4.486374 3.9369812 7.3669434c0.28347778 2.8805695 -0.5888977 5.755783 -2.4252625 7.993103l-34.619293 42.178314c-2.746582E-4 3.3569336E-4 -7.6293945E-4 3.8146973E-4 -0.0010986328 1.0681152E-4l-71.71542 -58.86624l0 0c-3.3569336E-4 -2.746582E-4 -3.9672852E-4 -7.6293945E-4 -1.2207031E-4 -0.0010986328l34.619385 -42.177216l0 0c3.8240356 -4.6589966 10.700836 -5.3358 15.359772 -1.5116806z" fill-rule="evenodd"/><path stroke="#000000" stroke-width="1.0" stroke-linejoin="round" stroke-linecap="butt" d="m395.89774 101.62885l54.845062 45.01777c2.2373047 1.8364105 3.653473 4.486374 3.9369812 7.3669434c0.28347778 2.8805695 -0.5888977 5.755783 -2.4252625 7.993103l-34.619293 42.178314c-2.746582E-4 3.3569336E-4 -7.6293945E-4 3.8146973E-4 -0.0010986328 1.0681152E-4l-71.71542 -58.86624l0 0c-3.3569336E-4 -2.746582E-4 -3.9672852E-4 -7.6293945E-4 -1.2207031E-4 -0.0010986328l34.619385 -42.177216l0 0c3.8240356 -4.6589966 10.700836 -5.3358 15.359772 -1.5116806z" fill-rule="evenodd"/><path fill="#999999" d="m337.12775 154.0832l14.425171 11.842514l-230.45668 280.7874l-14.425194 -11.842529z" fill-rule="evenodd"/><path stroke="#000000" stroke-width="1.0" stroke-linejoin="round" stroke-linecap="butt" d="m337.12775 154.0832l14.425171 11.842514l-230.45668 280.7874l-14.425194 -11.842529z" fill-rule="evenodd"/></g></svg>