<svg version="1.1" viewBox="0.0 0.0 680.4488188976378 513.2047244094488" fill="none" stroke="none" stroke-linecap="square" stroke-miterlimit="10" xmlns:xlink="http://www.w3.org/1999/xlink" xmlns="http://www.w3.org/2000/svg"><clipPath id="p.0"><path d="m0 0l680.4488 0l0 513.2047l-680.4488 0l0 -513.2047z" clip-rule="nonzero"/></clipPath><g clip-path="url(#p.0)"><path fill="#000000" fill-opacity="0.0" d="m0 0l680.4488 0l0 513.2047l-680.4488 0z" fill-rule="evenodd"/><path fill="#bf9000" d="m145.41208 63.866344l0 0c0 -5.630226 4.5641937 -10.1944275 10.1944275 -10.1944275l350.16232 0c2.7037354 0 5.2967224 1.0740509 7.2085266 2.985878c1.9118652 1.9118271 2.9859009 4.504818 2.9859009 7.2085495l0 40.776493c0 5.630234 -4.564209 10.194435 -10.1944275 10.194435l-350.16232 0c-5.630234 0 -10.1944275 -4.5642014 -10.1944275 -10.194435z" fill-rule="evenodd"/><path stroke="#000000" stroke-width="1.0" stroke-linejoin="round" stroke-linecap="butt" d="m145.41208 63.866344l0 0c0 -5.630226 4.5641937 -10.1944275 10.1944275 -10.1944275l350.16232 0c2.7037354 0 5.2967224 1.0740509 7.2085266 2.985878c1.9118652 1.9118271 2.9859009 4.504818 2.9859009 7.2085495l0 40.776493c0 5.630234 -4.564209 10.194435 -10.1944275 10.194435l-350.16232 0c-5.630234 0 -10.1944275 -4.5642014 -10.1944275 -10.194435z" fill-rule="evenodd"/><path fill="#bf9000" d="m145.41208 198.10782l0 0c0 -5.630234 4.5641937 -10.1944275 10.1944275 -10.1944275l350.16232 0c2.7037354 0 5.2967224 1.0740509 7.2085266 2.9858704c1.9118652 1.9118347 2.9859009 4.504822 2.9859009 7.208557l0 40.77649c0 5.630234 -4.564209 10.1944275 -10.1944275 10.1944275l-350.16232 0c-5.630234 0 -10.1944275 -4.5641937 -10.1944275 -10.1944275z" fill-rule="evenodd"/><path stroke="#000000" stroke-width="1.0" stroke-linejoin="round" stroke-linecap="butt" d="m145.41208 198.10782l0 0c0 -5.630234 4.5641937 -10.1944275 10.1944275 -10.1944275l350.16232 0c2.7037354 0 5.2967224 1.0740509 7.2085266 2.9858704c1.9118652 1.9118347 2.9859009 4.504822 2.9859009 7.208557l0 40.77649c0 5.630234 -4.564209 10.1944275 -10.1944275 10.1944275l-350.16232 0c-5.630234 0 -10.1944275 -4.5641937 -10.1944275 -10.1944275z" fill-rule="evenodd"/><path fill="#bf9000" d="m145.41208 332.34927l0 0c0 -5.6302185 4.5641937 -10.1944275 10.1944275 -10.1944275l350.16232 0c2.7037354 0 5.2967224 1.0740662 7.2085266 2.9859009c1.9118652 1.9118042 2.9859009 4.504822 2.9859009 7.2085266l0 40.77652c0 5.6302185 -4.564209 10.1944275 -10.1944275 10.1944275l-350.16232 0c-5.630234 0 -10.1944275 -4.564209 -10.1944275 -10.1944275z" fill-rule="evenodd"/><path stroke="#000000" stroke-width="1.0" stroke-linejoin="round" stroke-linecap="butt" d="m145.41208 332.34927l0 0c0 -5.6302185 4.5641937 -10.1944275 10.1944275 -10.1944275l350.16232 0c2.7037354 0 5.2967224 1.0740662 7.2085266 2.9859009c1.9118652 1.9118042 2.9859009 4.504822 2.9859009 7.2085266l0 40.77652c0 5.6302185 -4.564209 10.1944275 -10.1944275 10.1944275l-350.16232 0c-5.630234 0 -10.1944275 -4.564209 -10.1944275 -10.1944275z" fill-rule="evenodd"/></g></svg>