<svg version="1.1" viewBox="0.0 0.0 140.1968503937008 122.87139107611549" fill="none" stroke="none" stroke-linecap="square" stroke-miterlimit="10" xmlns:xlink="http://www.w3.org/1999/xlink" xmlns="http://www.w3.org/2000/svg"><clipPath id="p.0"><path d="m0 0l140.19685 0l0 122.87139l-140.19685 0l0 -122.87139z" clip-rule="nonzero"/></clipPath><g clip-path="url(#p.0)"><path fill="#000000" fill-opacity="0.0" d="m0 0l140.19685 0l0 122.87139l-140.19685 0z" fill-rule="evenodd"/><g filter="url(#shadowFilter-p.1)"><use xlink:href="#p.1" transform="matrix(1.0 0.0 0.0 1.0 -0.9270512137826034 2.8531695989173227)"/></g><defs><filter id="shadowFilter-p.1" filterUnits="userSpaceOnUse"><feGaussianBlur in="SourceAlpha" stdDeviation="4.0" result="blur"/><feComponentTransfer in="blur" color-interpolation-filters="sRGB"><feFuncR type="linear" slope="0" intercept="0.0"/><feFuncG type="linear" slope="0" intercept="0.0"/><feFuncB type="linear" slope="0" intercept="0.0"/><feFuncA type="linear" slope="1.0" intercept="0"/></feComponentTransfer></filter></defs><g id="p.1"><path fill="#cc0000" d="m11.531496 24.228718l0 0c0 -10.274731 8.329315 -18.604046 18.604046 -18.604046l79.925766 0l0 0c4.9340973 0 9.666107 1.9600635 13.155045 5.4489994c3.4889374 3.4889355 5.449005 8.220947 5.449005 13.155046l0 74.413956c0 10.2747345 -8.329323 18.60405 -18.60405 18.60405l-79.925766 0l0 0c-10.274731 0 -18.604046 -8.329315 -18.604046 -18.60405z" fill-rule="evenodd"/><path stroke="#000000" stroke-width="1.0" stroke-linejoin="round" stroke-linecap="butt" d="m11.531496 24.228718l0 0c0 -10.274731 8.329315 -18.604046 18.604046 -18.604046l79.925766 0l0 0c4.9340973 0 9.666107 1.9600635 13.155045 5.4489994c3.4889374 3.4889355 5.449005 8.220947 5.449005 13.155046l0 74.413956c0 10.2747345 -8.329323 18.60405 -18.60405 18.60405l-79.925766 0l0 0c-10.274731 0 -18.604046 -8.329315 -18.604046 -18.60405z" fill-rule="evenodd"/></g><path fill="#000000" d="m102.523476 111.08954l-82.07874 -82.07874l17.228346 -17.228348l82.07874 82.07874z" fill-rule="evenodd"/><path stroke="#000000" stroke-width="1.0" stroke-linejoin="round" stroke-linecap="butt" d="m102.523476 111.08954l-82.07874 -82.07874l17.228346 -17.228348l82.07874 82.07874z" fill-rule="evenodd"/><path fill="#000000" d="m20.444735 93.86119l82.07874 -82.07874l17.228348 17.228348l-82.07874 82.07874z" fill-rule="evenodd"/><path stroke="#000000" stroke-width="1.0" stroke-linejoin="round" stroke-linecap="butt" d="m20.444735 93.86119l82.07874 -82.07874l17.228348 17.228348l-82.07874 82.07874z" fill-rule="evenodd"/></g></svg>