<svg version="1.1" viewBox="0.0 0.0 109.17847769028872 121.24146981627297" fill="none" stroke="none" stroke-linecap="square" stroke-miterlimit="10" xmlns:xlink="http://www.w3.org/1999/xlink" xmlns="http://www.w3.org/2000/svg"><clipPath id="p.0"><path d="m0 0l109.178474 0l0 121.24147l-109.178474 0l0 -121.24147z" clip-rule="nonzero"/></clipPath><g clip-path="url(#p.0)"><path fill="#000000" fill-opacity="0.0" d="m0 0l109.178474 0l0 121.24147l-109.178474 0z" fill-rule="evenodd"/><g filter="url(#shadowFilter-p.1)"><use xlink:href="#p.1" transform="matrix(1.0 0.0 0.0 1.0 -0.26146720025170195 2.9885843432168633)"/></g><defs><filter id="shadowFilter-p.1" filterUnits="userSpaceOnUse"><feGaussianBlur in="SourceAlpha" stdDeviation="4.0" result="blur"/><feComponentTransfer in="blur" color-interpolation-filters="sRGB"><feFuncR type="linear" slope="0" intercept="0.0"/><feFuncG type="linear" slope="0" intercept="0.0"/><feFuncB type="linear" slope="0" intercept="0.0"/><feFuncA type="linear" slope="1.0" intercept="0"/></feComponentTransfer></filter></defs><g id="p.1"><path fill="#bf9000" d="m23.444042 17.10231l0 0c0 -6.3376894 5.1377144 -11.475403 11.475407 -11.475403l45.900238 0l0 0c3.0434647 0 5.9622803 1.2090125 8.114334 3.3610682c2.1520615 2.1520557 3.3610687 5.0708694 3.3610687 8.114335l0 86.51694c0 6.3376846 -5.1377106 11.475403 -11.475403 11.475403l-45.900238 0c-6.3376923 0 -11.475407 -5.137718 -11.475407 -11.475403z" fill-rule="evenodd"/><path stroke="#000000" stroke-width="1.0" stroke-linejoin="round" stroke-linecap="butt" d="m23.444042 17.10231l0 0c0 -6.3376894 5.1377144 -11.475403 11.475407 -11.475403l45.900238 0l0 0c3.0434647 0 5.9622803 1.2090125 8.114334 3.3610682c2.1520615 2.1520557 3.3610687 5.0708694 3.3610687 8.114335l0 86.51694c0 6.3376846 -5.1377106 11.475403 -11.475403 11.475403l-45.900238 0c-6.3376923 0 -11.475407 -5.137718 -11.475407 -11.475403z" fill-rule="evenodd"/></g><g filter="url(#shadowFilter-p.2)"><use xlink:href="#p.2" transform="matrix(1.0 0.0 0.0 1.0 -1.1755705906024443 1.6180341425217355)"/></g><defs><filter id="shadowFilter-p.2" filterUnits="userSpaceOnUse"><feGaussianBlur in="SourceAlpha" stdDeviation="1.0" result="blur"/><feComponentTransfer in="blur" color-interpolation-filters="sRGB"><feFuncR type="linear" slope="0" intercept="0.0"/><feFuncG type="linear" slope="0" intercept="0.0"/><feFuncB type="linear" slope="0" intercept="0.0"/><feFuncA type="linear" slope="0.52" intercept="0"/></feComponentTransfer></filter></defs><g id="p.2"><path fill="#000000" d="m77.77858 37.5447l-4.6335526 60.170197l-30.550358 0l-4.63356 -60.170197z" fill-rule="evenodd"/><path stroke="#000000" stroke-width="1.0" stroke-linejoin="round" stroke-linecap="butt" d="m77.77858 37.5447l-4.6335526 60.170197l-30.550358 0l-4.63356 -60.170197z" fill-rule="evenodd"/></g><g filter="url(#shadowFilter-p.3)"><use xlink:href="#p.3" transform="matrix(1.0 0.0 0.0 1.0 0.0 2.0)"/></g><defs><filter id="shadowFilter-p.3" filterUnits="userSpaceOnUse"><feGaussianBlur in="SourceAlpha" stdDeviation="2.0" result="blur"/><feComponentTransfer in="blur" color-interpolation-filters="sRGB"><feFuncR type="linear" slope="0" intercept="0.0"/><feFuncG type="linear" slope="0" intercept="0.0"/><feFuncB type="linear" slope="0" intercept="0.0"/><feFuncA type="linear" slope="0.5" intercept="0"/></feComponentTransfer></filter></defs><g id="p.3"><defs><linearGradient id="p.4" gradientUnits="userSpaceOnUse" gradientTransform="matrix(7.042811942669267 -0.5122099518003803 0.5122099518003803 7.042811942669267 0.0 0.0)" spreadMethod="pad" x1="5.403697843633187" y1="6.703417809027552" x2="5.403672434990215" y2="13.746229751650985"><stop offset="0.0" stop-color="#696969"/><stop offset="1.0" stop-color="#1d1d1d"/></linearGradient></defs><path fill="url(#p.4)" d="m42.03884 45.259552l0 0c-0.029441833 -0.47078323 0.32807922 -0.8801689 0.7985382 -0.91438293l3.4072876 -0.24780655l0 0c0.22592163 -0.016429901 0.44821167 0.057621002 0.61795807 0.20586395c0.16975021 0.14824295 0.27305603 0.35853577 0.2871933 0.5846138l2.9974403 47.93293c0.029438019 0.47077942 -0.32807922 0.8801651 -0.798542 0.91438293l-3.4072838 0.24780273c-0.4704628 0.034217834 -0.87571335 -0.31969452 -0.9051552 -0.79047394z" fill-rule="evenodd"/><path stroke="#000000" stroke-width="1.0" stroke-linejoin="round" stroke-linecap="butt" d="m42.03884 45.259552l0 0c-0.029441833 -0.47078323 0.32807922 -0.8801689 0.7985382 -0.91438293l3.4072876 -0.24780655l0 0c0.22592163 -0.016429901 0.44821167 0.057621002 0.61795807 0.20586395c0.16975021 0.14824295 0.27305603 0.35853577 0.2871933 0.5846138l2.9974403 47.93293c0.029438019 0.47077942 -0.32807922 0.8801651 -0.798542 0.91438293l-3.4072838 0.24780273c-0.4704628 0.034217834 -0.87571335 -0.31969452 -0.9051552 -0.79047394z" fill-rule="evenodd"/></g><defs><linearGradient id="p.5" gradientUnits="userSpaceOnUse" gradientTransform="matrix(7.051495532095929 0.0 0.0 7.051495532095929 0.0 0.0)" spreadMethod="pad" x1="7.855754580195517" y1="6.244830172540538" x2="7.855729135815534" y2="13.296325704590561"><stop offset="0.0" stop-color="#696969"/><stop offset="1.0" stop-color="#1d1d1d"/></linearGradient></defs><path fill="url(#p.5)" d="m55.394817 44.887257l0 0c0 -0.4704628 0.3813858 -0.8518486 0.8518486 -0.8518486l3.4072876 0l0 0c0.22592163 0 0.44259262 0.08974838 0.6023445 0.24950027c0.15975189 0.15975189 0.24950027 0.37642288 0.24950027 0.6023483l0 48.01987c0 0.4704666 -0.3813858 0.8518524 -0.8518448 0.8518524l-3.4072876 0c-0.4704628 0 -0.8518486 -0.3813858 -0.8518486 -0.8518524z" fill-rule="evenodd"/><path stroke="#000000" stroke-width="1.0" stroke-linejoin="round" stroke-linecap="butt" d="m55.394817 44.887257l0 0c0 -0.4704628 0.3813858 -0.8518486 0.8518486 -0.8518486l3.4072876 0l0 0c0.22592163 0 0.44259262 0.08974838 0.6023445 0.24950027c0.15975189 0.15975189 0.24950027 0.37642288 0.24950027 0.6023483l0 48.01987c0 0.4704666 -0.3813858 0.8518524 -0.8518448 0.8518524l-3.4072876 0c-0.4704628 0 -0.8518486 -0.3813858 -0.8518486 -0.8518524z" fill-rule="evenodd"/><g filter="url(#shadowFilter-p.6)"><use xlink:href="#p.6" transform="matrix(1.0 0.0 0.0 1.0 0.0 2.0)"/></g><defs><filter id="shadowFilter-p.6" filterUnits="userSpaceOnUse"><feGaussianBlur in="SourceAlpha" stdDeviation="2.0" result="blur"/><feComponentTransfer in="blur" color-interpolation-filters="sRGB"><feFuncR type="linear" slope="0" intercept="0.0"/><feFuncG type="linear" slope="0" intercept="0.0"/><feFuncB type="linear" slope="0" intercept="0.0"/><feFuncA type="linear" slope="0.5" intercept="0"/></feComponentTransfer></filter></defs><g id="p.6"><defs><linearGradient id="p.7" gradientUnits="userSpaceOnUse" gradientTransform="matrix(7.041579095568894 0.4752144541449429 -0.4752144541449429 7.041579095568894 0.0 0.0)" spreadMethod="pad" x1="10.128936402910277" y1="5.570114724909608" x2="10.128910980524921" y2="12.611693820432608"><stop offset="0.0" stop-color="#696969"/><stop offset="1.0" stop-color="#1d1d1d"/></linearGradient></defs><path fill="url(#p.7)" d="m68.61955 44.883205l0 0c0.028030396 -0.46822357 0.43014526 -0.82219315 0.89813995 -0.79060745l3.38945 0.22874069l0 0c0.22473907 0.015167236 0.4349289 0.11903381 0.5843277 0.2887535c0.14939117 0.16971588 0.22576141 0.3913803 0.21229553 0.61623l-2.8687286 47.91361c-0.028038025 0.46822357 -0.4301529 0.82218933 -0.8981476 0.79060364l-3.38945 -0.2287445c-0.4679947 -0.031578064 -0.82466125 -0.43675232 -0.79662323 -0.9049835z" fill-rule="evenodd"/><path stroke="#000000" stroke-width="1.0" stroke-linejoin="round" stroke-linecap="butt" d="m68.61955 44.883205l0 0c0.028030396 -0.46822357 0.43014526 -0.82219315 0.89813995 -0.79060745l3.38945 0.22874069l0 0c0.22473907 0.015167236 0.4349289 0.11903381 0.5843277 0.2887535c0.14939117 0.16971588 0.22576141 0.3913803 0.21229553 0.61623l-2.8687286 47.91361c-0.028038025 0.46822357 -0.4301529 0.82218933 -0.8981476 0.79060364l-3.38945 -0.2287445c-0.4679947 -0.031578064 -0.82466125 -0.43675232 -0.79662323 -0.9049835z" fill-rule="evenodd"/></g><g filter="url(#shadowFilter-p.8)"><use xlink:href="#p.8" transform="matrix(1.0 0.0 0.0 1.0 0.6560590448654856 0.7547097193600312)"/></g><defs><filter id="shadowFilter-p.8" filterUnits="userSpaceOnUse"><feGaussianBlur in="SourceAlpha" stdDeviation="2.5" result="blur"/><feComponentTransfer in="blur" color-interpolation-filters="sRGB"><feFuncR type="linear" slope="0" intercept="0.0"/><feFuncG type="linear" slope="0" intercept="0.0"/><feFuncB type="linear" slope="0" intercept="0.0"/><feFuncA type="linear" slope="0.62" intercept="0"/></feComponentTransfer></filter></defs><g id="p.8"><path fill="#000000" d="m38.73792 29.987392l38.262737 0c0.20616913 0 0.40390015 0.08189964 0.5496826 0.22768593c0.14578247 0.14578438 0.22768402 0.34351158 0.22768402 0.5496826l0 3.8867474c0 1.8310547E-4 -1.449585E-4 3.3187866E-4 -3.2806396E-4 3.3187866E-4l-39.817142 -3.3187866E-4l0 0c-1.8310547E-4 0 -3.3187866E-4 -1.487732E-4 -3.3187866E-4 -3.3187866E-4l3.3187866E-4 -3.8864155l0 0c0 -0.42932892 0.34803772 -0.77736855 0.77736664 -0.77736855z" fill-rule="evenodd"/><path stroke="#000000" stroke-width="1.0" stroke-linejoin="round" stroke-linecap="butt" d="m38.73792 29.987392l38.262737 0c0.20616913 0 0.40390015 0.08189964 0.5496826 0.22768593c0.14578247 0.14578438 0.22768402 0.34351158 0.22768402 0.5496826l0 3.8867474c0 1.8310547E-4 -1.449585E-4 3.3187866E-4 -3.2806396E-4 3.3187866E-4l-39.817142 -3.3187866E-4l0 0c-1.8310547E-4 0 -3.3187866E-4 -1.487732E-4 -3.3187866E-4 -3.3187866E-4l3.3187866E-4 -3.8864155l0 0c0 -0.42932892 0.34803772 -0.77736855 0.77736664 -0.77736855z" fill-rule="evenodd"/></g><g filter="url(#shadowFilter-p.9)"><use xlink:href="#p.9" transform="matrix(1.0 0.0 0.0 1.0 -0.9816272965879265 -0.19080891446491552)"/></g><defs><filter id="shadowFilter-p.9" filterUnits="userSpaceOnUse"><feGaussianBlur in="SourceAlpha" stdDeviation="1.0" result="blur"/><feComponentTransfer in="blur" color-interpolation-filters="sRGB"><feFuncR type="linear" slope="0" intercept="0.0"/><feFuncG type="linear" slope="0" intercept="0.0"/><feFuncB type="linear" slope="0" intercept="0.0"/><feFuncA type="linear" slope="0.55" intercept="0"/></feComponentTransfer></filter></defs><g id="p.9"><path fill="#000000" fill-opacity="0.0" d="m50.51001 23.00666l14.718559 0c0.30857086 0 0.60450745 0.12258148 0.8227005 0.34077644c0.21820068 0.21819305 0.34077454 0.51412964 0.34077454 0.8227024l0 5.817253c0 7.8201294E-5 -6.1035156E-5 1.411438E-4 -1.373291E-4 1.411438E-4l-17.045376 -1.411438E-4l0 0c-8.010864E-5 0 -1.449585E-4 -6.484985E-5 -1.449585E-4 -1.4305115E-4l1.449585E-4 -5.81711l0 0c0 -0.6425705 0.52090454 -1.1634789 1.1634789 -1.1634789z" fill-rule="evenodd"/><path stroke="#000000" stroke-width="3.0" stroke-linejoin="round" stroke-linecap="butt" d="m50.51001 23.00666l14.718559 0c0.30857086 0 0.60450745 0.12258148 0.8227005 0.34077644c0.21820068 0.21819305 0.34077454 0.51412964 0.34077454 0.8227024l0 5.817253c0 7.8201294E-5 -6.1035156E-5 1.411438E-4 -1.373291E-4 1.411438E-4l-17.045376 -1.411438E-4l0 0c-8.010864E-5 0 -1.449585E-4 -6.484985E-5 -1.449585E-4 -1.4305115E-4l1.449585E-4 -5.81711l0 0c0 -0.6425705 0.52090454 -1.1634789 1.1634789 -1.1634789z" fill-rule="evenodd"/></g></g></svg>