<svg version="1.1" viewBox="0.0 0.0 109.17847769028872 121.24146981627297" fill="none" stroke="none" stroke-linecap="square" stroke-miterlimit="10" xmlns:xlink="http://www.w3.org/1999/xlink" xmlns="http://www.w3.org/2000/svg"><clipPath id="p.0"><path d="m0 0l109.178474 0l0 121.24147l-109.178474 0l0 -121.24147z" clip-rule="nonzero"/></clipPath><g clip-path="url(#p.0)"><path fill="#000000" fill-opacity="0.0" d="m0 0l109.178474 0l0 121.24147l-109.178474 0z" fill-rule="evenodd"/><g filter="url(#shadowFilter-p.1)"><use xlink:href="#p.1" transform="matrix(1.0 0.0 0.0 1.0 -0.26146720025170195 2.9885843432168633)"/></g><defs><filter id="shadowFilter-p.1" filterUnits="userSpaceOnUse"><feGaussianBlur in="SourceAlpha" stdDeviation="4.0" result="blur"/><feComponentTransfer in="blur" color-interpolation-filters="sRGB"><feFuncR type="linear" slope="0" intercept="0.0"/><feFuncG type="linear" slope="0" intercept="0.0"/><feFuncB type="linear" slope="0" intercept="0.0"/><feFuncA type="linear" slope="1.0" intercept="0"/></feComponentTransfer></filter></defs><g id="p.1"><path fill="#bf9000" d="m16.75853 21.435944l0 0c0 -6.847888 5.5513115 -12.399199 12.399199 -12.399199l49.595306 0l0 0c3.2884674 0 6.442253 1.3063402 8.767555 3.6316414c2.3253021 2.3253012 3.6316376 5.479086 3.6316376 8.767557l0 74.98113c0 6.847885 -5.5513077 12.3992 -12.399193 12.3992l-49.595306 0c-6.847887 0 -12.399199 -5.5513153 -12.399199 -12.3992z" fill-rule="evenodd"/><path stroke="#000000" stroke-width="1.0" stroke-linejoin="round" stroke-linecap="butt" d="m16.75853 21.435944l0 0c0 -6.847888 5.5513115 -12.399199 12.399199 -12.399199l49.595306 0l0 0c3.2884674 0 6.442253 1.3063402 8.767555 3.6316414c2.3253021 2.3253012 3.6316376 5.479086 3.6316376 8.767557l0 74.98113c0 6.847885 -5.5513077 12.3992 -12.399193 12.3992l-49.595306 0c-6.847887 0 -12.399199 -5.5513153 -12.399199 -12.3992z" fill-rule="evenodd"/></g><g filter="url(#shadowFilter-p.2)"><use xlink:href="#p.2" transform="matrix(1.0 0.0 0.0 1.0 -1.1755705906024443 1.6180341425217355)"/></g><defs><filter id="shadowFilter-p.2" filterUnits="userSpaceOnUse"><feGaussianBlur in="SourceAlpha" stdDeviation="1.0" result="blur"/><feComponentTransfer in="blur" color-interpolation-filters="sRGB"><feFuncR type="linear" slope="0" intercept="0.0"/><feFuncG type="linear" slope="0" intercept="0.0"/><feFuncB type="linear" slope="0" intercept="0.0"/><feFuncA type="linear" slope="0.52" intercept="0"/></feComponentTransfer></filter></defs><g id="p.2"><path fill="#000000" d="m78.84165 37.806213l-5.791954 60.17019l-38.187943 0l-5.7919483 -60.17019z" fill-rule="evenodd"/><path stroke="#000000" stroke-width="1.0" stroke-linejoin="round" stroke-linecap="butt" d="m78.84165 37.806213l-5.791954 60.17019l-38.187943 0l-5.7919483 -60.17019z" fill-rule="evenodd"/></g><g filter="url(#shadowFilter-p.3)"><use xlink:href="#p.3" transform="matrix(1.0 0.0 0.0 1.0 0.0 2.0)"/></g><defs><filter id="shadowFilter-p.3" filterUnits="userSpaceOnUse"><feGaussianBlur in="SourceAlpha" stdDeviation="2.0" result="blur"/><feComponentTransfer in="blur" color-interpolation-filters="sRGB"><feFuncR type="linear" slope="0" intercept="0.0"/><feFuncG type="linear" slope="0" intercept="0.0"/><feFuncB type="linear" slope="0" intercept="0.0"/><feFuncA type="linear" slope="0.5" intercept="0"/></feComponentTransfer></filter></defs><g id="p.3"><defs><radialGradient id="p.4" gradientUnits="userSpaceOnUse" gradientTransform="matrix(5.011675615731222 -0.29159150026656977 0.29159150026656977 5.011675615731222 0.0 0.0)" spreadMethod="pad" cx="7.000418453178559" cy="14.235345080869562" fx="7.000418453178559" fy="14.235345080869562" r="5.011675834655762"><stop offset="0.0" stop-color="#ffc002"/><stop offset="1.0" stop-color="#795b04"/></radialGradient></defs><path fill="url(#p.4)" d="m34.18346 45.731995l0 0c-0.045906067 -0.5872803 0.3936081 -1.0911026 0.98168564 -1.1253166l4.2591095 -0.24780655l0 0c0.28240204 -0.016429901 0.5620003 0.07984543 0.7772789 0.2676468c0.21527863 0.18780136 0.3486061 0.45174408 0.37064743 0.73376465l3.7138252 47.511063c0.045906067 0.5872803 -0.3936119 1.0911026 -0.98168945 1.1253128l-4.2591057 0.24781036c-0.58807755 0.034210205 -1.1020241 -0.41413116 -1.1479301 -1.0014114z" fill-rule="evenodd"/><path stroke="#000000" stroke-width="1.0" stroke-linejoin="round" stroke-linecap="butt" d="m34.18346 45.731995l0 0c-0.045906067 -0.5872803 0.3936081 -1.0911026 0.98168564 -1.1253166l4.2591095 -0.24780655l0 0c0.28240204 -0.016429901 0.5620003 0.07984543 0.7772789 0.2676468c0.21527863 0.18780136 0.3486061 0.45174408 0.37064743 0.73376465l3.7138252 47.511063c0.045906067 0.5872803 -0.3936119 1.0911026 -0.98168945 1.1253128l-4.2591057 0.24781036c-0.58807755 0.034210205 -1.1020241 -0.41413116 -1.1479301 -1.0014114z" fill-rule="evenodd"/></g><defs><radialGradient id="p.5" gradientUnits="userSpaceOnUse" gradientTransform="matrix(5.006611391335632 0.0 0.0 5.006611391335632 0.0 0.0)" spreadMethod="pad" cx="10.796984855800407" cy="13.813475405823269" fx="10.796984855800407" fy="13.813475405823269" r="5.006611347198486"><stop offset="0.0" stop-color="#ffc002"/><stop offset="1.0" stop-color="#795b04"/></radialGradient></defs><path fill="url(#p.5)" d="m50.861946 45.36173l0 0c0 -0.58807755 0.47673035 -1.0648079 1.0648079 -1.0648079l4.2591057 0l0 0c0.28240585 0 0.55324554 0.11218262 0.7529335 0.3118744c0.19969177 0.19968796 0.3118782 0.47052765 0.3118782 0.7529335l0 47.593952c0 0.58807373 -0.47673416 1.0648041 -1.0648117 1.0648041l-4.2591057 0c-0.58807755 0 -1.0648079 -0.47673035 -1.0648079 -1.0648041z" fill-rule="evenodd"/><path stroke="#000000" stroke-width="1.0" stroke-linejoin="round" stroke-linecap="butt" d="m50.861946 45.36173l0 0c0 -0.58807755 0.47673035 -1.0648079 1.0648079 -1.0648079l4.2591057 0l0 0c0.28240585 0 0.55324554 0.11218262 0.7529335 0.3118744c0.19969177 0.19968796 0.3118782 0.47052765 0.3118782 0.7529335l0 47.593952c0 0.58807373 -0.47673416 1.0648041 -1.0648117 1.0648041l-4.2591057 0c-0.58807755 0 -1.0648079 -0.47673035 -1.0648079 -1.0648041z" fill-rule="evenodd"/><g filter="url(#shadowFilter-p.6)"><use xlink:href="#p.6" transform="matrix(1.0 0.0 0.0 1.0 0.0 2.0)"/></g><defs><filter id="shadowFilter-p.6" filterUnits="userSpaceOnUse"><feGaussianBlur in="SourceAlpha" stdDeviation="2.0" result="blur"/><feComponentTransfer in="blur" color-interpolation-filters="sRGB"><feFuncR type="linear" slope="0" intercept="0.0"/><feFuncG type="linear" slope="0" intercept="0.0"/><feFuncB type="linear" slope="0" intercept="0.0"/><feFuncA type="linear" slope="0.5" intercept="0"/></feComponentTransfer></filter></defs><g id="p.6"><defs><radialGradient id="p.7" gradientUnits="userSpaceOnUse" gradientTransform="matrix(5.010230092176814 0.27049998032400824 -0.27049998032400824 5.010230092176814 0.0 0.0)" spreadMethod="pad" cx="14.431830236275722" cy="13.047158512112215" fx="14.431830236275722" fy="13.047158512112215" r="5.01023006439209"><stop offset="0.0" stop-color="#ffc002"/><stop offset="1.0" stop-color="#795b04"/></radialGradient></defs><path fill="url(#p.7)" d="m67.37714 45.354736l0 0c0.04372406 -0.5842171 0.55340576 -1.0322151 1.1384048 -1.0006294l4.236809 0.2287445l0 0c0.28092957 0.015167236 0.54200745 0.14115906 0.72579956 0.3502655c0.18379974 0.20910263 0.27526093 0.48418808 0.25426483 0.76474l-3.5544815 47.493557c-0.04372406 0.5842209 -0.55340576 1.0322189 -1.1384048 1.0006332l-4.236809 -0.2287445c-0.58499146 -0.031585693 -1.0237846 -0.53079224 -0.9800606 -1.1150055z" fill-rule="evenodd"/><path stroke="#000000" stroke-width="1.0" stroke-linejoin="round" stroke-linecap="butt" d="m67.37714 45.354736l0 0c0.04372406 -0.5842171 0.55340576 -1.0322151 1.1384048 -1.0006294l4.236809 0.2287445l0 0c0.28092957 0.015167236 0.54200745 0.14115906 0.72579956 0.3502655c0.18379974 0.20910263 0.27526093 0.48418808 0.25426483 0.76474l-3.5544815 47.493557c-0.04372406 0.5842209 -0.55340576 1.0322189 -1.1384048 1.0006332l-4.236809 -0.2287445c-0.58499146 -0.031585693 -1.0237846 -0.53079224 -0.9800606 -1.1150055z" fill-rule="evenodd"/></g><g filter="url(#shadowFilter-p.8)"><use xlink:href="#p.8" transform="matrix(1.0 0.0 0.0 1.0 0.6560590448654856 0.7547097193600312)"/></g><defs><filter id="shadowFilter-p.8" filterUnits="userSpaceOnUse"><feGaussianBlur in="SourceAlpha" stdDeviation="2.5" result="blur"/><feComponentTransfer in="blur" color-interpolation-filters="sRGB"><feFuncR type="linear" slope="0" intercept="0.0"/><feFuncG type="linear" slope="0" intercept="0.0"/><feFuncB type="linear" slope="0" intercept="0.0"/><feFuncA type="linear" slope="0.62" intercept="0"/></feComponentTransfer></filter></defs><g id="p.8"><path fill="#000000" d="m29.84648 30.248901l48.217102 0c0.20616913 0 0.40390015 0.08190155 0.5496826 0.22768593c0.1457901 0.14578438 0.22768402 0.34351158 0.22768402 0.5496826l0 3.8867474c0 2.2888184E-4 -1.8310547E-4 4.15802E-4 -4.119873E-4 4.15802E-4l-49.771427 -4.15802E-4l0 0c-2.2888184E-4 0 -4.1389465E-4 -1.8310547E-4 -4.1389465E-4 -4.15802E-4l4.1389465E-4 -3.8863316l0 0c0 -0.42932892 0.34803963 -0.77736855 0.77736855 -0.77736855z" fill-rule="evenodd"/><path stroke="#000000" stroke-width="1.0" stroke-linejoin="round" stroke-linecap="butt" d="m29.84648 30.248901l48.217102 0c0.20616913 0 0.40390015 0.08190155 0.5496826 0.22768593c0.1457901 0.14578438 0.22768402 0.34351158 0.22768402 0.5496826l0 3.8867474c0 2.2888184E-4 -1.8310547E-4 4.15802E-4 -4.119873E-4 4.15802E-4l-49.771427 -4.15802E-4l0 0c-2.2888184E-4 0 -4.1389465E-4 -1.8310547E-4 -4.1389465E-4 -4.15802E-4l4.1389465E-4 -3.8863316l0 0c0 -0.42932892 0.34803963 -0.77736855 0.77736855 -0.77736855z" fill-rule="evenodd"/></g><g filter="url(#shadowFilter-p.9)"><use xlink:href="#p.9" transform="matrix(1.0 0.0 0.0 1.0 -0.9816272965879265 -0.19080891446491552)"/></g><defs><filter id="shadowFilter-p.9" filterUnits="userSpaceOnUse"><feGaussianBlur in="SourceAlpha" stdDeviation="1.0" result="blur"/><feComponentTransfer in="blur" color-interpolation-filters="sRGB"><feFuncR type="linear" slope="0" intercept="0.0"/><feFuncG type="linear" slope="0" intercept="0.0"/><feFuncB type="linear" slope="0" intercept="0.0"/><feFuncA type="linear" slope="0.55" intercept="0"/></feComponentTransfer></filter></defs><g id="p.9"><path fill="#000000" fill-opacity="0.0" d="m44.46506 23.268171l18.979942 0c0.30857086 0 0.60451126 0.122579575 0.8227043 0.34077454c0.21819305 0.21819496 0.34077454 0.51412964 0.34077454 0.8227043l0 5.817251c0 9.918213E-5 -8.392334E-5 1.7738342E-4 -1.7547607E-4 1.7738342E-4l-21.306725 -1.7738342E-4l0 0c-9.536743E-5 0 -1.7547607E-4 -8.010864E-5 -1.7547607E-4 -1.7738342E-4l1.7547607E-4 -5.817074l0 0c0 -0.6425724 0.52090836 -1.1634789 1.1634789 -1.1634789z" fill-rule="evenodd"/><path stroke="#000000" stroke-width="3.0" stroke-linejoin="round" stroke-linecap="butt" d="m44.46506 23.268171l18.979942 0c0.30857086 0 0.60451126 0.122579575 0.8227043 0.34077454c0.21819305 0.21819496 0.34077454 0.51412964 0.34077454 0.8227043l0 5.817251c0 9.918213E-5 -8.392334E-5 1.7738342E-4 -1.7547607E-4 1.7738342E-4l-21.306725 -1.7738342E-4l0 0c-9.536743E-5 0 -1.7547607E-4 -8.010864E-5 -1.7547607E-4 -1.7738342E-4l1.7547607E-4 -5.817074l0 0c0 -0.6425724 0.52090836 -1.1634789 1.1634789 -1.1634789z" fill-rule="evenodd"/></g></g></svg>